HIERARCHY
ROOT Hips
{
	OFFSET	0.00	0.00	0.00
	CHANNELS 6 Xposition Yposition Zposition Zrotation Xrotation Yrotation
	JOINT LeftUpLeg
	{
		OFFSET	 0.126116	-0.014019	-0.065224
		CHANNELS 3 Zrotation Xrotation Yrotation
		JOINT LeftLeg
		{
			OFFSET	 0.000000	 0.000000	 0.569914
			CHANNELS 3 Zrotation Xrotation Yrotation
			JOINT LeftFoot
			{
				OFFSET	 0.000000	 0.000000	 0.544423
				CHANNELS 3 Zrotation Xrotation Yrotation
				JOINT LeftToeBase
				{
					OFFSET	 0.000000	 0.000000	 0.207117
					CHANNELS 3 Zrotation Xrotation Yrotation
					End Site
					{
						OFFSET	 0.000000	 0.000000	 0.207117
					}
				}
			}
		}
	}
	JOINT RightUpLeg
	{
		OFFSET	-0.124023	-0.008373	-0.065224
		CHANNELS 3 Zrotation Xrotation Yrotation
		JOINT RightLeg
		{
			OFFSET	 0.000000	 0.000000	 0.570047
			CHANNELS 3 Zrotation Xrotation Yrotation
			JOINT RightFoot
			{
				OFFSET	 0.000000	 0.000000	 0.544354
				CHANNELS 3 Zrotation Xrotation Yrotation
				JOINT RightToeBase
				{
					OFFSET	 0.000000	 0.000000	 0.207540
					CHANNELS 3 Zrotation Xrotation Yrotation
					End Site
					{
						OFFSET	 0.000000	 0.000000	 0.207540
					}
				}
			}
		}
	}
	JOINT Spine
	{
		OFFSET	 0.000184	-0.007763	 0.117403
		CHANNELS 3 Zrotation Xrotation Yrotation
		JOINT Spine1
		{
			OFFSET	 0.000000	 0.000000	 0.137269
			CHANNELS 3 Zrotation Xrotation Yrotation
			JOINT Spine2
			{
				OFFSET	 0.000000	 0.000000	 0.156879
				CHANNELS 3 Zrotation Xrotation Yrotation
				JOINT LeftShoulder
				{
					OFFSET	 0.080501	-0.002496	 0.160144
					CHANNELS 3 Zrotation Xrotation Yrotation
					JOINT LeftArm
					{
						OFFSET	 0.000000	 0.000000	 0.164363
						CHANNELS 3 Zrotation Xrotation Yrotation
						JOINT LeftForeArm
						{
							OFFSET	 0.000000	 0.000000	 0.364576
							CHANNELS 3 Zrotation Xrotation Yrotation
							JOINT LeftHand
							{
								OFFSET	 0.000000	 0.000000	 0.360812
								CHANNELS 3 Zrotation Xrotation Yrotation
								JOINT LeftHandIndex1
								{
									OFFSET	 0.000000	 0.000000	 0.086006
									CHANNELS 3 Zrotation Xrotation Yrotation
									JOINT LeftHandIndex2
									{
										OFFSET	 0.000000	 0.000000	 0.047236
										CHANNELS 3 Zrotation Xrotation Yrotation
										JOINT LeftHandIndex3
										{
											OFFSET	-0.004284	-0.000551	 0.038166
											CHANNELS 3 Zrotation Xrotation Yrotation
											End Site
											{
												OFFSET	-0.004284	-0.000551	 0.038166
											}
										}
									}
								}
							}
						}
					}
				}
				JOINT Neck
				{
					OFFSET	 0.000000	 0.000000	 0.176489
					CHANNELS 3 Zrotation Xrotation Yrotation
					JOINT Head
					{
						OFFSET	 0.000000	-0.001747	 0.077940
						CHANNELS 3 Zrotation Xrotation Yrotation
						End Site
						{
							OFFSET	 0.000000	-0.001747	 0.077940
						}
					}
				}
				JOINT RightShoulder
				{
					OFFSET	-0.080363	 0.000306	 0.159706
					CHANNELS 3 Zrotation Xrotation Yrotation
					JOINT RightArm
					{
						OFFSET	 0.000000	 0.000000	 0.164196
						CHANNELS 3 Zrotation Xrotation Yrotation
						JOINT RightForeArm
						{
							OFFSET	 0.000000	 0.000000	 0.365611
							CHANNELS 3 Zrotation Xrotation Yrotation
							JOINT RightHand
							{
								OFFSET	 0.000000	 0.000000	 0.360648
								CHANNELS 3 Zrotation Xrotation Yrotation
								JOINT RightHandIndex1
								{
									OFFSET	 0.000000	 0.000000	 0.069977
									CHANNELS 3 Zrotation Xrotation Yrotation
									JOINT RightHandIndex2
									{
										OFFSET	 0.000000	 0.000000	 0.052305
										CHANNELS 3 Zrotation Xrotation Yrotation
										JOINT RightHandIndex3
										{
											OFFSET	 0.009002	-0.000782	 0.042196
											CHANNELS 3 Zrotation Xrotation Yrotation
											End Site
											{
												OFFSET	 0.009002	-0.000782	 0.042196
											}
										}
									}
								}
							}
						}
					}
				}
			}
		}
	}
}
MOTION
Frames:    7
Frame Time: 0.03333334
 0.000478	 0.041258	 1.275208	-0.106156	 1.988623	 0.568325	 1.187079	-5.291845	 178.386700	 2.391870	-13.624960	 0.662067	-0.358276	 71.617670	 0.094838	-2.385833	 28.452750	 0.000004	 6.435256	-4.724553	-178.802100	-0.807384	-11.873970	 0.894404	 5.547379	 70.400740	 0.781485	 2.384659	 28.388700	-0.000001	-0.366149	 6.595932	 0.264478	-0.097681	-3.720529	 0.137346	 0.760215	 6.566717	 0.147414	-91.290790	 70.651010	-178.122400	-7.947670	 3.196252	-14.912200	 26.428090	-1.733813	-6.055643	-9.531356	-6.106680	-3.891374	-2.027600	 6.559038	 9.033609	-5.188889	 0.308190	 3.541030	-5.234859	 0.342567	 0.430617	 4.127456	 15.530240	-5.983049	-4.387137	-11.496020	 2.010168	 89.180060	 69.869410	 177.721700	 10.334870	 8.293718	 7.727763	-27.065720	-6.819443	 18.619280	 6.461901	-6.683053	 6.480043	 1.803333	 3.979147	-15.098590	 4.898592	 3.004813	-9.310344	 5.224449	 0.395017	 2.014677
 0.000282	 0.042700	 1.275049	-0.083456	 2.469141	 0.591771	 1.077115	-6.014331	 178.358300	 2.292516	-13.901630	 0.651329	-0.176918	 71.616580	 0.005906	-2.385833	 28.452750	 0.000004	 6.460566	-5.402025	-178.777800	-0.785684	-12.071130	 0.913599	 5.558181	 70.417890	 0.751012	 2.384659	 28.388700	-0.000001	-0.421189	 7.106432	 0.293737	-0.131669	-5.572329	 0.072684	 0.853565	 8.678543	 0.158865	-91.174100	 69.819210	-177.837500	-7.367419	 2.095780	-15.106720	 26.039290	-2.187151	-7.820249	-8.223560	-6.874014	-4.056041	-2.027600	 6.559038	 9.033609	-5.188889	 0.308190	 3.541030	-5.234859	 0.342567	 0.430617	 4.360389	 17.705280	-6.660486	-4.263035	-12.949630	 1.961751	 89.021090	 68.725940	 177.378700	 10.045020	 7.265325	 8.734344	-27.109760	-7.012414	 19.062940	 5.156807	-6.999693	 6.085834	 1.803333	 3.979147	-15.098590	 4.898592	 3.004813	-9.310344	 5.224449	 0.395017	 2.014677
 0.000088	 0.044288	 1.274785	-0.061464	 2.935634	 0.614689	 0.968419	-6.750877	 178.326600	 2.198017	-14.219870	 0.642668	 0.001909	 71.626050	-0.085126	-2.385833	 28.452750	 0.000004	 6.487341	-6.100668	-178.755100	-0.763351	-12.325260	 0.937328	 5.594748	 70.452160	 0.692997	 2.384659	 28.388700	-0.000001	-0.478704	 7.486567	 0.338417	-0.176713	-7.072137	-0.016786	 0.952200	 10.598440	 0.177229	-91.053280	 69.007010	-177.565400	-6.843371	 1.172442	-15.289710	 25.661110	-2.629236	-9.615195	-6.980695	-7.558059	-4.236565	-2.027600	 6.559038	 9.033609	-5.188889	 0.308190	 3.541030	-5.234859	 0.342567	 0.430617	 4.616453	 19.826740	-7.336207	-4.128001	-14.359580	 1.914968	 88.856100	 67.609660	 177.052400	 9.801538	 6.430137	 9.673326	-27.170080	-7.242472	 19.577440	 3.908805	-7.270350	 5.705924	 1.803333	 3.979147	-15.098590	 4.898592	 3.004813	-9.310344	 5.224449	 0.395017	 2.014677
-0.000224	 0.046335	 1.274296	-0.017321	 3.513043	 0.652334	 0.821426	-7.726721	 178.268600	 2.180359	-14.730920	 0.660764	 0.088980	 71.773840	-0.154248	-2.385833	 28.452750	 0.000004	 6.488006	-7.016646	-178.745300	-0.749644	-12.736750	 0.971150	 5.626386	 70.531810	 0.654225	 2.384659	 28.388700	-0.000001	-0.456873	 7.866766	 0.372324	-0.199125	-8.670702	-0.108020	 0.941801	 12.361600	 0.209717	-90.962200	 68.381070	-177.379000	-6.424558	 0.680148	-15.273740	 25.209430	-3.068319	-11.532530	-5.968941	-8.428991	-4.544599	-2.027600	 6.559038	 9.033609	-5.188889	 0.308190	 3.541030	-5.234859	 0.342567	 0.430617	 4.703932	 21.641080	-7.880640	-3.940620	-15.681570	 1.887368	 88.699990	 66.522950	 176.778800	 9.493999	 5.825059	 10.413530	-27.071620	-7.451718	 20.196740	 2.737191	-7.667827	 5.412006	 1.803333	 3.979147	-15.098590	 4.898592	 3.004813	-9.310344	 5.224449	 0.395017	 2.014677
-0.000576	 0.048697	 1.273644	 0.034605	 4.127356	 0.695463	 0.611372	-8.798889	 178.189300	 2.147380	-15.323720	 0.690634	 0.141101	 71.966380	-0.217779	-2.385833	 28.452750	 0.000004	 6.480911	-8.028734	-178.740200	-0.739365	-13.230730	 1.010514	 5.680369	 70.629300	 0.597106	 2.384659	 28.388700	-0.000001	-0.404375	 8.210557	 0.400073	-0.218430	-10.166980	-0.196565	 0.891383	 13.995650	 0.250956	-90.882360	 67.828470	-177.225800	-6.036093	 0.493045	-15.278940	 24.737560	-3.463820	-13.402940	-5.069828	-9.333145	-4.907538	-2.027600	 6.559038	 9.033609	-5.188889	 0.308190	 3.541030	-5.234859	 0.342567	 0.430617	 4.734910	 23.330930	-8.367302	-3.732233	-16.960960	 1.873650	 88.545910	 65.455030	 176.528600	 9.163506	 5.459427	 11.092930	-26.921130	-7.653459	 20.854560	 1.612698	-8.085403	 5.164128	 1.803333	 3.979147	-15.098590	 4.898592	 3.004813	-9.310344	 5.224449	 0.395017	 2.014677
-0.000934	 0.051423	 1.272950	 0.089955	 4.793835	 0.747076	 0.500041	-9.945689	 178.112400	 2.224006	-15.905910	 0.718764	 0.187521	 72.137030	-0.275721	-2.385833	 28.452760	 0.000004	 6.453611	-9.099170	-178.734700	-0.790675	-13.689350	 1.032663	 5.787958	 70.698270	 0.544982	 2.384659	 28.388700	-0.000001	-0.339933	 8.517256	 0.412096	-0.243403	-11.634330	-0.266943	 0.816331	 15.554770	 0.282082	-90.824250	 67.212810	-177.156400	-5.580467	 0.449472	-15.289530	 24.086270	-3.753503	-15.167910	-4.373654	-10.185890	-5.356447	-2.027600	 6.559038	 9.033609	-5.188889	 0.308190	 3.541030	-5.234859	 0.342567	 0.430617	 4.709504	 24.780020	-8.733223	-3.542466	-18.077510	 1.832846	 88.424400	 64.362230	 176.385400	 8.686047	 5.229017	 11.675210	-26.668780	-7.808189	 21.512990	 0.525546	-8.448976	 5.018256	 1.803333	 3.979147	-15.098590	 4.898592	 3.004813	-9.310344	 5.224449	 0.395017	 2.014677
-0.001314	 0.054721	 1.272370	 0.155218	 5.601336	 0.820410	 0.275322	-11.229740	 177.989600	 2.194345	-16.400980	 0.737673	 0.240293	 72.247750	-0.318617	-2.385832	 28.452790	-0.000001	 6.370069	-10.266180	-178.729000	-1.007237	-13.974410	 1.001171	 5.994036	 70.678960	 0.553208	 2.384659	 28.388700	-0.000001	-0.243419	 8.741729	 0.392780	-0.269835	-13.219730	-0.307471	 0.668669	 17.011700	 0.293992	-90.830090	 66.428600	-177.297600	-4.949257	 0.421732	-15.097600	 22.959100	-3.828428	-16.828260	-4.155815	-10.986220	-5.998549	-2.027600	 6.559038	 9.033609	-5.188889	 0.308190	 3.541030	-5.234859	 0.342567	 0.430617	 4.501496	 25.609280	-8.785314	-3.416757	-18.784510	 1.705701	 88.401760	 63.196270	 176.507400	 7.814834	 4.962276	 11.958010	-26.132420	-7.826283	 22.167070	-0.495185	-8.733580	 5.112953	 1.803333	 3.979147	-15.098590	 4.898592	 3.004813	-9.310344	 5.224449	 0.395017	 2.014677
